<?xml version="1.0" encoding="UTF-8" standalone="no"?>
<!-- Created with Inkscape (http://www.inkscape.org/) -->

<svg
   xmlns:dc="http://purl.org/dc/elements/1.1/"
   xmlns:cc="http://creativecommons.org/ns#"
   xmlns:rdf="http://www.w3.org/1999/02/22-rdf-syntax-ns#"
   xmlns:svg="http://www.w3.org/2000/svg"
   xmlns="http://www.w3.org/2000/svg"
   xmlns:sodipodi="http://sodipodi.sourceforge.net/DTD/sodipodi-0.dtd"
   xmlns:inkscape="http://www.inkscape.org/namespaces/inkscape"
   id="svg3355"
   version="1.1"
   inkscape:version="0.91 r13725"
   xml:space="preserve"
   width="772.73193"
   height="189.10738"
   viewBox="0 0 772.73193 189.10738"
   sodipodi:docname="logo.svg"><metadata
     id="metadata3361"><rdf:RDF><cc:Work
         rdf:about=""><dc:format>image/svg+xml</dc:format><dc:type
           rdf:resource="http://purl.org/dc/dcmitype/StillImage" /><dc:title></dc:title></cc:Work></rdf:RDF></metadata><defs
     id="defs3359"><clipPath
       clipPathUnits="userSpaceOnUse"
       id="clipPath3369"><path
         d="M 0,768 1366,768 1366,0 0,0 0,768 Z"
         id="path3371"
         inkscape:connector-curvature="0" /></clipPath></defs><sodipodi:namedview
     pagecolor="#000000"
     bordercolor="#666666"
     borderopacity="1"
     objecttolerance="10"
     gridtolerance="10"
     guidetolerance="10"
     inkscape:pageopacity="0"
     inkscape:pageshadow="2"
     inkscape:window-width="1680"
     inkscape:window-height="1001"
     id="namedview3357"
     showgrid="false"
     inkscape:zoom="0.70710678"
     inkscape:cx="263.31934"
     inkscape:cy="141.5829"
     inkscape:window-x="0"
     inkscape:window-y="1"
     inkscape:window-maximized="1"
     inkscape:current-layer="g3365"
     fit-margin-top="0"
     fit-margin-left="0"
     fit-margin-right="0"
     fit-margin-bottom="0" /><g
     id="g3363"
     inkscape:groupmode="layer"
     inkscape:label="Micrometer logo"
     transform="matrix(1.25,0,0,-1.25,-468.03375,573.92875)"><g
       id="g3365"><g
         id="g3367"
         clip-path="url(#clipPath3369)"
         inkscape:export-xdpi="69.889999"
         inkscape:export-ydpi="69.889999"><g
           id="g3373"
           transform="translate(395.813,350.585)"
           inkscape:export-xdpi="69.889999"
           inkscape:export-ydpi="69.889999"><path
             d="m 0,0 6.153,13.984 13.601,4.163 10.115,47.589 24.485,-27.706 23.921,27.249 11.183,-40.1 7.351,1.719 14.983,30.109 10.831,8.308 c -12.137,25.565 -38.186,43.243 -68.367,43.243 -41.776,0 -75.642,-33.867 -75.642,-75.643 0,-12.414 2.99,-24.13 8.291,-34.466 L 0,0 Z"
             style="fill:#1ba89c;fill-opacity:1;fill-rule:nonzero;stroke:none"
             id="path3375"
             inkscape:connector-curvature="0" /></g><g
           id="g3377"
           transform="translate(514.7026,401.7451)"
           inkscape:export-xdpi="69.889999"
           inkscape:export-ydpi="69.889999"><path
             d="m 0,0 -15.938,-32.024 -19.815,-4.638 -9.046,32.435 -19.715,-22.457 -19.442,22 -7.513,-35.35 -14.72,-4.507 -6.562,-14.914 -14.192,-1.681 c 13.644,-19.783 36.461,-32.752 62.31,-32.752 41.776,0 75.642,33.867 75.642,75.643 0,8.303 -1.342,16.291 -3.814,23.765 L 0,0 Z"
             style="fill:#117a71;fill-opacity:1;fill-rule:nonzero;stroke:none"
             id="path3379"
             inkscape:connector-curvature="0" /></g><g
           id="g3381"
           transform="translate(607.1494,363.6182)"
           inkscape:export-xdpi="69.889999"
           inkscape:export-ydpi="69.889999"><path
             d="m 0,0 -11.984,0 0,23.021 -10.808,-13.332 -0.946,0 -10.837,13.332 0,-23.021 -11.64,0 0,39.735 10.866,0 12.213,-14.908 12.27,14.908 L 0,39.735 0,0 Z"
             style="fill:#ffffff;fill-opacity:1;fill-rule:nonzero;stroke:none"
             id="path3383"
             inkscape:connector-curvature="0" /></g><path
           d="m 629.224,363.618 -11.984,0 0,39.735 11.984,0 0,-39.735 z"
           style="fill:#ffffff;fill-opacity:1;fill-rule:nonzero;stroke:none"
           id="path3385"
           inkscape:connector-curvature="0"
           inkscape:export-xdpi="69.889999"
           inkscape:export-ydpi="69.889999" /><g
           id="g3387"
           transform="translate(674.8364,366.5996)"
           inkscape:export-xdpi="69.889999"
           inkscape:export-ydpi="69.889999"><path
             d="m 0,0 c -1.643,-0.86 -3.325,-1.548 -5.045,-2.063 -1.72,-0.517 -3.455,-0.885 -5.204,-1.105 -1.749,-0.219 -3.56,-0.33 -5.432,-0.33 -3.46,0 -6.562,0.478 -9.304,1.435 -2.742,0.955 -5.122,2.364 -7.138,4.228 -2.016,1.863 -3.527,4.042 -4.53,6.536 -1.003,2.494 -1.504,5.233 -1.504,8.214 0,3.421 0.592,6.417 1.777,8.987 1.184,2.571 2.842,4.707 4.973,6.409 2.132,1.7 4.558,2.956 7.282,3.769 2.725,0.812 5.596,1.218 8.616,1.218 4.51,0 9.623,-1.003 15.337,-3.01 l 0,-10.55 c -1.968,1.223 -3.913,2.241 -5.834,3.053 -1.92,0.813 -4.181,1.219 -6.78,1.219 -2.313,0 -4.472,-0.459 -6.48,-1.377 -2.005,-0.917 -3.622,-2.227 -4.844,-3.927 -1.223,-1.702 -1.835,-3.689 -1.835,-5.963 0,-2.008 0.535,-3.847 1.605,-5.519 1.071,-1.672 2.556,-3.001 4.459,-3.985 1.901,-0.984 4.047,-1.476 6.436,-1.476 1.93,0 3.755,0.233 5.476,0.702 1.72,0.468 3.167,0.989 4.343,1.562 C -2.45,8.601 -1.243,9.279 0,10.063 L 0,0 Z"
             style="fill:#ffffff;fill-opacity:1;fill-rule:nonzero;stroke:none"
             id="path3389"
             inkscape:connector-curvature="0" /></g><g
           id="g3391"
           transform="translate(705.082,390.7964)"
           inkscape:export-xdpi="69.889999"
           inkscape:export-ydpi="69.889999"><path
             d="m 0,0 c 0,1.834 -0.603,3.115 -1.807,3.841 -1.203,0.727 -3.163,1.09 -5.877,1.09 l -2.522,0 0,-9.576 2.58,0 c 2.924,0 4.926,0.32 6.006,0.96 C -0.54,-3.044 0,-1.816 0,0 m 16.283,-27.178 -12.871,0 -3.126,7.053 c -1.146,2.58 -2.179,4.466 -3.096,5.662 -0.917,1.193 -1.81,1.958 -2.68,2.293 -0.869,0.335 -1.993,0.502 -3.368,0.502 l -1.348,0 0,-15.51 -11.984,0 0,39.735 20.383,0 c 3.288,0 5.983,-0.67 8.085,-2.007 2.102,-1.339 3.618,-2.963 4.544,-4.874 0.927,-1.911 1.391,-3.726 1.391,-5.447 0,-2.006 -0.387,-3.703 -1.161,-5.088 C 10.277,-6.245 9.461,-7.253 8.601,-7.883 7.74,-8.515 6.774,-9.117 5.705,-9.69 c 1.28,-0.746 2.337,-1.63 3.168,-2.652 0.831,-1.023 1.964,-3.092 3.398,-6.206 l 4.012,-8.63 z"
             style="fill:#ffffff;fill-opacity:1;fill-rule:nonzero;stroke:none"
             id="path3393"
             inkscape:connector-curvature="0" /></g><g
           id="g3395"
           transform="translate(757.1162,383.5142)"
           inkscape:export-xdpi="69.889999"
           inkscape:export-ydpi="69.889999"><path
             d="m 0,0 c 0,1.491 -0.221,2.853 -0.66,4.086 -0.441,1.232 -1.104,2.303 -1.992,3.211 -0.889,0.907 -1.974,1.614 -3.254,2.121 -1.281,0.506 -2.763,0.76 -4.444,0.76 -3.211,0 -5.734,-0.937 -7.568,-2.809 -1.836,-1.875 -2.753,-4.33 -2.753,-7.369 0,-3.039 0.922,-5.5 2.767,-7.382 1.843,-1.883 4.362,-2.825 7.554,-2.825 2.198,0 4.071,0.435 5.619,1.305 1.548,0.87 2.724,2.073 3.526,3.613 C -0.401,-3.751 0,-1.988 0,0 m 12.212,0 c 0,-3.708 -0.856,-7.12 -2.566,-10.234 -1.71,-3.116 -4.256,-5.591 -7.64,-7.426 -3.383,-1.835 -7.501,-2.753 -12.356,-2.753 -4.912,0 -9.069,0.956 -12.471,2.868 -3.402,1.911 -5.93,4.423 -7.582,7.54 -1.655,3.115 -2.48,6.451 -2.48,10.005 0,3.574 0.82,6.914 2.465,10.02 1.643,3.106 4.171,5.609 7.583,7.511 3.411,1.902 7.573,2.853 12.485,2.853 3.67,0 6.942,-0.545 9.82,-1.635 C 2.346,17.66 4.711,16.184 6.564,14.32 8.418,12.457 9.822,10.288 10.779,7.813 11.734,5.337 12.212,2.733 12.212,0"
             style="fill:#ffffff;fill-opacity:1;fill-rule:nonzero;stroke:none"
             id="path3397"
             inkscape:connector-curvature="0" /></g><g
           id="g3399"
           transform="translate(822.9971,363.6182)"
           inkscape:export-xdpi="69.889999"
           inkscape:export-ydpi="69.889999"><path
             d="m 0,0 -11.984,0 0,23.021 -10.808,-13.332 -0.946,0 -10.837,13.332 0,-23.021 -11.64,0 0,39.735 10.865,0 12.214,-14.908 12.27,14.908 L 0,39.735 0,0 Z"
             style="fill:#ffffff;fill-opacity:1;fill-rule:nonzero;stroke:none"
             id="path3401"
             inkscape:connector-curvature="0" /></g><g
           id="g3403"
           transform="translate(862.9902,363.6182)"
           inkscape:export-xdpi="69.889999"
           inkscape:export-ydpi="69.889999"><path
             d="m 0,0 -29.959,0 0,39.735 29.473,0 0,-7.97 -17.489,0 0,-7.282 16.685,0 0,-7.999 -16.685,0 0,-8.486 L 0,7.998 0,0 Z"
             style="fill:#ffffff;fill-opacity:1;fill-rule:nonzero;stroke:none"
             id="path3405"
             inkscape:connector-curvature="0" /></g><g
           id="g3407"
           transform="translate(909.1182,393.6919)"
           inkscape:export-xdpi="69.889999"
           inkscape:export-ydpi="69.889999"><path
             d="m 0,0 -14.563,0 0,-30.074 -11.956,0 0,30.074 -14.563,0 0,9.661 L 0,9.661 0,0 Z"
             style="fill:#ffffff;fill-opacity:1;fill-rule:nonzero;stroke:none"
             id="path3409"
             inkscape:connector-curvature="0" /></g><g
           id="g3411"
           transform="translate(946.0723,363.6182)"
           inkscape:export-xdpi="69.889999"
           inkscape:export-ydpi="69.889999"><path
             d="m 0,0 -29.959,0 0,39.735 29.473,0 0,-7.97 -17.489,0 0,-7.282 16.685,0 0,-7.999 -16.685,0 0,-8.486 L 0,7.998 0,0 Z"
             style="fill:#ffffff;fill-opacity:1;fill-rule:nonzero;stroke:none"
             id="path3413"
             inkscape:connector-curvature="0" /></g><g
           id="g3415"
           transform="translate(976.29,390.7964)"
           inkscape:export-xdpi="69.889999"
           inkscape:export-ydpi="69.889999"><path
             d="m 0,0 c 0,1.834 -0.603,3.115 -1.807,3.841 -1.203,0.727 -3.163,1.09 -5.877,1.09 l -2.522,0 0,-9.576 2.58,0 c 2.924,0 4.926,0.32 6.006,0.96 C -0.54,-3.044 0,-1.816 0,0 m 16.283,-27.178 -12.872,0 -3.125,7.053 c -1.146,2.58 -2.179,4.466 -3.096,5.662 -0.918,1.193 -1.81,1.958 -2.68,2.293 -0.869,0.335 -1.993,0.502 -3.368,0.502 l -1.348,0 0,-15.51 -11.984,0 0,39.735 20.383,0 c 3.288,0 5.983,-0.67 8.085,-2.007 2.102,-1.339 3.618,-2.963 4.544,-4.874 0.927,-1.911 1.391,-3.726 1.391,-5.447 0,-2.006 -0.387,-3.703 -1.161,-5.088 C 10.277,-6.245 9.461,-7.253 8.601,-7.883 7.74,-8.515 6.774,-9.117 5.705,-9.69 c 1.28,-0.746 2.337,-1.63 3.168,-2.652 0.831,-1.023 1.964,-3.092 3.398,-6.206 l 4.012,-8.63 z"
             style="fill:#ffffff;fill-opacity:1;fill-rule:nonzero;stroke:none"
             id="path3417"
             inkscape:connector-curvature="0" /></g></g><text
         xml:space="preserve"
         style="font-style:normal;font-variant:normal;font-weight:normal;font-stretch:normal;font-size:32px;line-height:125%;font-family:'Gill Sans';-inkscape-font-specification:'Gill Sans';letter-spacing:0px;word-spacing:0px;fill:#000000;fill-opacity:1;stroke:none;stroke-width:1px;stroke-linecap:butt;stroke-linejoin:miter;stroke-opacity:1"
         x="1031.8103"
         y="-384.66608"
         id="text4219"
         sodipodi:linespacing="125%"
         transform="scale(1,-1)"><tspan
           sodipodi:role="line"
           id="tspan4221"
           x="1031.8103"
           y="-384.66608" /></text>
<flowRoot
         xml:space="preserve"
         id="flowRoot4223"
         style="font-style:normal;font-variant:normal;font-weight:normal;font-stretch:normal;font-size:40px;line-height:125%;font-family:'Gill Sans';-inkscape-font-specification:'Gill Sans';letter-spacing:0px;word-spacing:0px;fill:#000000;fill-opacity:1;stroke:none;stroke-width:1px;stroke-linecap:butt;stroke-linejoin:miter;stroke-opacity:1"
         transform="matrix(0.8,0,0,-0.8,0,768)"><flowRegion
           id="flowRegion4225"><rect
             id="rect4227"
             width="523.25903"
             height="149.90663"
             x="704.27838"
             y="419.77042"
             style="font-style:normal;font-variant:normal;font-weight:normal;font-stretch:normal;font-family:'Gill Sans';-inkscape-font-specification:'Gill Sans'" /></flowRegion><flowPara
           id="flowPara4229"></flowPara></flowRoot><text
         xml:space="preserve"
         style="font-style:normal;font-variant:normal;font-weight:normal;font-stretch:normal;font-size:32px;line-height:125%;font-family:'Gill Sans';-inkscape-font-specification:'Gill Sans';letter-spacing:0px;word-spacing:0px;fill:#000000;fill-opacity:1;stroke:none;stroke-width:1px;stroke-linecap:butt;stroke-linejoin:miter;stroke-opacity:1"
         x="617.72845"
         y="-345.06812"
         id="text4231"
         sodipodi:linespacing="125%"
         transform="scale(1,-1)"><tspan
           sodipodi:role="line"
           id="tspan4233"
           x="617.72845"
           y="-345.06812" /></text>
<text
         xml:space="preserve"
         style="font-style:normal;font-variant:normal;font-weight:normal;font-stretch:normal;font-size:32px;line-height:125%;font-family:'Gill Sans';-inkscape-font-specification:'Gill Sans';letter-spacing:0px;word-spacing:0px;fill:#000000;fill-opacity:1;stroke:none;stroke-width:1px;stroke-linecap:butt;stroke-linejoin:miter;stroke-opacity:1"
         x="702.5813"
         y="-339.41125"
         id="text4235"
         sodipodi:linespacing="125%"
         transform="scale(1,-1)"
         inkscape:export-xdpi="69.889999"
         inkscape:export-ydpi="69.889999"><tspan
           sodipodi:role="line"
           id="tspan4237"
           x="702.5813"
           y="-339.41125"
           style="font-style:normal;font-variant:normal;font-weight:normal;font-stretch:normal;font-family:'Gill Sans';-inkscape-font-specification:'Gill Sans';fill:#ffffff">application monitoring</tspan></text>
</g></g></svg>